<svg width="30" height="30" viewBox="0 0 30 30" fill="none" xmlns="http://www.w3.org/2000/svg">
<path fill-rule="evenodd" clip-rule="evenodd" d="M25.0605 7.93918C25.3417 8.22047 25.4997 8.60193 25.4997 8.99968C25.4997 9.39743 25.3417 9.77889 25.0605 10.0602L13.0605 22.0602C12.7792 22.3414 12.3977 22.4994 12 22.4994C11.6022 22.4994 11.2208 22.3414 10.9395 22.0602L4.93949 16.0602C4.66625 15.7773 4.51506 15.3984 4.51847 15.0051C4.52189 14.6118 4.67965 14.2356 4.95776 13.9575C5.23587 13.6793 5.61209 13.5216 6.00538 13.5182C6.39868 13.5148 6.77758 13.6659 7.06048 13.9392L12 18.8787L22.9395 7.93918C23.2208 7.65797 23.6022 7.5 24 7.5C24.3977 7.5 24.7792 7.65797 25.0605 7.93918Z" fill="white"/>
</svg>
