<svg width="17" height="17" viewBox="0 0 17 17" fill="none" xmlns="http://www.w3.org/2000/svg">
<path d="M15.0759 5.86204L10.8607 5.24944L8.97647 1.42943C8.92501 1.32484 8.84034 1.24017 8.73575 1.1887C8.47344 1.05921 8.15469 1.16712 8.02354 1.42943L6.13927 5.24944L1.92413 5.86204C1.80792 5.87864 1.70167 5.93343 1.62032 6.01644C1.52198 6.11752 1.46778 6.25351 1.46965 6.39452C1.47152 6.53554 1.52929 6.67005 1.63028 6.76849L4.67999 9.74183L3.95948 13.9404C3.94258 14.038 3.95339 14.1385 3.99068 14.2303C4.02796 14.3222 4.09024 14.4017 4.17043 14.46C4.25063 14.5182 4.34554 14.5528 4.44441 14.5599C4.54328 14.5669 4.64214 14.5461 4.72979 14.4998L8.50001 12.5176L12.2702 14.4998C12.3732 14.5546 12.4927 14.5729 12.6072 14.553C12.8961 14.5032 13.0903 14.2292 13.0405 13.9404L12.32 9.74183L15.3697 6.76849C15.4527 6.68714 15.5075 6.58089 15.5241 6.46468C15.569 6.17415 15.3664 5.90521 15.0759 5.86204V5.86204Z" fill="#037E8C"/>
</svg>
