<svg width="17" height="17" viewBox="0 0 17 17" fill="none" xmlns="http://www.w3.org/2000/svg">
<path d="M5.754 0.556C6.31133 0.556 6.77333 0.622 7.14 0.754C7.50667 0.871332 7.80733 1.02533 8.042 1.216C8.23267 1.36267 8.38667 1.524 8.504 1.7C8.62133 1.876 8.70933 2.052 8.768 2.228C8.82667 2.404 8.856 2.57267 8.856 2.734C8.856 3.10067 8.724 3.38667 8.46 3.592C8.21067 3.79733 7.932 3.9 7.624 3.9C7.33067 3.9 7.06667 3.80467 6.832 3.614C6.59733 3.42333 6.48 3.152 6.48 2.8C6.48 2.47733 6.59 2.206 6.81 1.986C7.03 1.75133 7.30867 1.61933 7.646 1.59C7.58733 1.39933 7.404 1.238 7.096 1.106C6.80267 0.959332 6.42867 0.885999 5.974 0.885999C5.226 0.885999 4.61 1.11333 4.126 1.568C3.65667 2.008 3.422 2.65333 3.422 3.504C3.422 3.91467 3.49533 4.33267 3.642 4.758C3.80333 5.18333 4.104 5.60133 4.544 6.012C4.79333 5.968 5.05 5.93867 5.314 5.924C5.578 5.89467 5.776 5.88 5.908 5.88C6.172 5.88 6.38467 5.924 6.546 6.012C6.70733 6.1 6.788 6.22467 6.788 6.386C6.788 6.518 6.72933 6.62067 6.612 6.694C6.50933 6.76733 6.36267 6.804 6.172 6.804C5.89333 6.804 5.6 6.74533 5.292 6.628C4.984 6.496 4.742 6.39333 4.566 6.32C3.71533 6.56933 3.026 6.98 2.498 7.552C1.97 8.10933 1.706 8.90133 1.706 9.928C1.706 10.94 1.97 11.798 2.498 12.502C3.026 13.206 3.73 13.7487 4.61 14.13C5.50467 14.4967 6.502 14.68 7.602 14.68C8.37933 14.68 9.11267 14.592 9.802 14.416C10.506 14.2253 11.122 13.954 11.65 13.602C12.1927 13.25 12.618 12.832 12.926 12.348C13.234 11.8493 13.388 11.2847 13.388 10.654C13.388 10.3753 13.3293 10.0233 13.212 9.598C13.0947 9.158 12.8527 8.73267 12.486 8.322C12.1193 7.89667 11.5547 7.56667 10.792 7.332L11.056 7.112C12.1267 7.43467 12.8893 7.95533 13.344 8.674C13.7987 9.378 14.026 10.17 14.026 11.05C14.026 11.93 13.762 12.7733 13.234 13.58C12.706 14.3867 11.9433 15.0467 10.946 15.56C9.94867 16.0587 8.73867 16.308 7.316 16.308C6.36267 16.308 5.45333 16.1833 4.588 15.934C3.73733 15.6847 2.982 15.3253 2.322 14.856C1.662 14.372 1.14133 13.7927 0.76 13.118C0.378667 12.4433 0.188 11.6807 0.188 10.83C0.188 10.038 0.342 9.36333 0.65 8.806C0.958 8.234 1.33933 7.76467 1.794 7.398C2.24867 7.03133 2.70333 6.75267 3.158 6.562C3.61267 6.35667 3.97933 6.21733 4.258 6.144C3.774 5.924 3.36333 5.66733 3.026 5.374C2.70333 5.066 2.454 4.736 2.278 4.384C2.11667 4.01733 2.036 3.658 2.036 3.306C2.036 2.954 2.11667 2.61667 2.278 2.294C2.43933 1.95667 2.674 1.656 2.982 1.392C3.29 1.128 3.67133 0.922666 4.126 0.775999C4.59533 0.629333 5.138 0.556 5.754 0.556ZM13.762 0.115999C14.6713 0.115999 15.434 0.379999 16.05 0.907999C16.666 1.42133 16.974 2.14733 16.974 3.086C16.974 3.58467 16.8787 4.032 16.688 4.428C16.512 4.80933 16.2627 5.14667 15.94 5.44C15.632 5.73333 15.28 5.97533 14.884 6.166C14.5467 6.32733 14.0993 6.50333 13.542 6.694C12.9993 6.88467 12.4127 7.07533 11.782 7.266C11.166 7.45667 10.572 7.64733 10 7.838C9.44267 8.014 8.988 8.168 8.636 8.3C8.09333 8.50533 7.63133 8.762 7.25 9.07C6.88333 9.36333 6.7 9.74467 6.7 10.214C6.7 10.5953 6.81 10.918 7.03 11.182C7.25 11.446 7.514 11.644 7.822 11.776C8.14467 11.908 8.44533 11.974 8.724 11.974C8.856 11.974 9.01733 11.9593 9.208 11.93C9.41333 11.886 9.59667 11.8273 9.758 11.754C9.91933 11.6807 10.0147 11.5927 10.044 11.49C9.80933 11.446 9.57467 11.3433 9.34 11.182C9.12 11.006 9.01 10.7347 9.01 10.368C9.01 10.016 9.12733 9.73733 9.362 9.532C9.59667 9.32667 9.88267 9.224 10.22 9.224C10.572 9.224 10.8507 9.334 11.056 9.554C11.276 9.774 11.386 10.06 11.386 10.412C11.386 10.8227 11.2467 11.1747 10.968 11.468C10.704 11.7467 10.3667 11.9593 9.956 12.106C9.56 12.238 9.164 12.304 8.768 12.304C8.35733 12.304 7.93933 12.216 7.514 12.04C7.08867 11.864 6.73667 11.5927 6.458 11.226C6.17933 10.8447 6.04 10.346 6.04 9.73C6.04 9.21667 6.15 8.762 6.37 8.366C6.60467 7.97 6.94933 7.618 7.404 7.31C7.85867 7.002 8.416 6.738 9.076 6.518C9.516 6.37133 10.0513 6.21 10.682 6.034C11.3127 5.858 11.958 5.66733 12.618 5.462C13.2927 5.25667 13.9013 5.02933 14.444 4.78C15.1773 4.44267 15.676 4.098 15.94 3.746C16.204 3.394 16.336 3.03467 16.336 2.668C16.336 2.24267 16.2187 1.86867 15.984 1.546C15.7493 1.20867 15.434 0.944666 15.038 0.754C14.6567 0.548666 14.2387 0.446 13.784 0.446C13.608 0.446 13.4613 0.460666 13.344 0.489999C13.2267 0.519333 13.1533 0.570666 13.124 0.644C13.3293 0.746666 13.4833 0.893332 13.586 1.084C13.6887 1.27467 13.74 1.46533 13.74 1.656C13.74 1.964 13.6153 2.22067 13.366 2.426C13.1313 2.63133 12.8453 2.734 12.508 2.734C12.2293 2.734 11.9653 2.646 11.716 2.47C11.4667 2.27933 11.342 2.00067 11.342 1.634C11.342 1.25267 11.4667 0.952 11.716 0.732C11.98 0.511999 12.2953 0.357999 12.662 0.269999C13.0433 0.167332 13.41 0.115999 13.762 0.115999Z" fill="#FFEA00"/>
</svg>
