<svg width="22" height="22" viewBox="0 0 22 22" fill="none" xmlns="http://www.w3.org/2000/svg">
<path d="M17.4167 5.5H15.5833C15.5833 2.93333 13.5667 0.916666 11 0.916666C8.43333 0.916666 6.41667 2.93333 6.41667 5.5H4.58333C3.575 5.5 2.75 6.325 2.75 7.33333V18.3333C2.75 19.3417 3.575 20.1667 4.58333 20.1667H17.4167C18.425 20.1667 19.25 19.3417 19.25 18.3333V7.33333C19.25 6.325 18.425 5.5 17.4167 5.5ZM11 2.75C12.5583 2.75 13.75 3.94167 13.75 5.5H8.25C8.25 3.94167 9.44167 2.75 11 2.75ZM17.4167 18.3333H4.58333V7.33333H17.4167V18.3333ZM11 11C9.44167 11 8.25 9.80833 8.25 8.25H6.41667C6.41667 10.8167 8.43333 12.8333 11 12.8333C13.5667 12.8333 15.5833 10.8167 15.5833 8.25H13.75C13.75 9.80833 12.5583 11 11 11Z" fill="#D6D1CA"/>
</svg>
