<svg width="115" height="21" viewBox="0 0 115 21" fill="none" xmlns="http://www.w3.org/2000/svg">
<path d="M10 14.3915L15.15 17.4998L13.7834 11.6415L18.3334 7.69984L12.3417 7.1915L10 1.6665L7.65835 7.1915L1.66669 7.69984L6.21669 11.6415L4.85002 17.4998L10 14.3915Z" fill="#FFEA00"/>
<path d="M56 14.3915L61.15 17.4998L59.7834 11.6415L64.3334 7.69984L58.3417 7.1915L56 1.6665L53.6584 7.1915L47.6667 7.69984L52.2167 11.6415L50.85 17.4998L56 14.3915Z" fill="#FFEA00"/>
<path d="M102 14.3915L107.15 17.4998L105.783 11.6415L110.333 7.69984L104.342 7.1915L102 1.6665L99.6584 7.1915L93.6667 7.69984L98.2167 11.6415L96.85 17.4998L102 14.3915Z" fill="#FFEA00"/>
<path d="M79 14.3915L84.15 17.4998L82.7834 11.6415L87.3334 7.69984L81.3417 7.1915L79 1.6665L76.6584 7.1915L70.6667 7.69984L75.2167 11.6415L73.85 17.4998L79 14.3915Z" fill="#FFEA00"/>
<path d="M33 14.3915L38.15 17.4998L36.7834 11.6415L41.3334 7.69984L35.3417 7.1915L33 1.6665L30.6584 7.1915L24.6667 7.69984L29.2167 11.6415L27.85 17.4998L33 14.3915Z" fill="#FFEA00"/>
</svg>
