<svg width="30" height="30" viewBox="0 0 30 30" fill="none" xmlns="http://www.w3.org/2000/svg">
<g clip-path="url(#clip0_108_828)">
<path d="M21.342 11.9302C19.1466 11.9302 17.3652 10.1488 17.3652 7.95336C17.3652 5.75792 19.1466 3.97656 21.342 3.97656C23.5375 3.97656 25.3188 5.75792 25.3188 7.95336C25.3188 10.1488 23.5375 11.9302 21.342 11.9302ZM21.342 5.30208C19.884 5.30208 18.6908 6.49532 18.6908 7.95336C18.6908 9.41141 19.884 10.6046 21.342 10.6046C22.8003 10.6046 23.9933 9.41141 23.9933 7.95336C23.9933 6.49532 22.8003 5.30208 21.342 5.30208Z" fill="white"/>
<path d="M21.3423 18.4425L15.9239 13.778C14.3001 12.2535 13.3887 10.1408 13.3887 7.9536C13.3887 3.57072 16.9596 0 21.3423 0C25.7252 0 29.2959 3.57072 29.2959 7.9536C29.2959 10.1408 28.3844 12.2535 26.7856 13.753L21.3423 18.4425ZM21.3423 1.32552C17.6885 1.32552 14.7142 4.29987 14.7142 7.9536C14.7142 9.80122 15.4598 11.5243 16.8104 12.7838L21.3423 16.6861L25.8989 12.7671C27.2247 11.5161 27.9704 9.80122 27.9704 7.9536C27.9704 4.29987 24.996 1.32552 21.3423 1.32552Z" fill="white"/>
<path d="M4.20885 30.0002L3.27266 29.064L4.64794 27.6887C5.15353 27.1832 5.43509 26.504 5.43509 25.7831C5.43509 25.1285 5.1948 24.4989 4.77221 24.01L2.56026 21.4832C1.41679 20.1825 0.79541 18.5254 0.79541 16.8021C0.79541 14.3581 2.02991 12.1129 4.09283 10.8038L8.86504 7.77148L9.57768 8.88996L4.80547 11.9223C3.12363 12.9828 2.12117 14.8054 2.12117 16.8021C2.12117 18.2023 2.62653 19.5611 3.55446 20.6133L5.76641 23.1401C6.40454 23.8692 6.76061 24.8137 6.76061 25.7831C6.76061 26.8601 6.34652 27.8625 5.58413 28.6249L4.20885 30.0002Z" fill="white"/>
<path d="M25.3191 29.8262H23.9936V29.3209C23.9936 25.9404 21.8477 22.9166 18.6498 21.8064L11.5661 19.3456C9.87599 18.7575 8.74902 17.1667 8.74902 15.3856C8.74902 14.2671 9.18811 13.2066 9.97527 12.4195L11.3093 11.0854L12.2455 12.0216L10.9115 13.3557C10.3731 13.8943 10.0748 14.6232 10.0748 15.3856C10.0748 16.6033 10.8534 17.697 12.0052 18.0946L19.0889 20.5636C22.8171 21.8561 25.3191 25.3771 25.3191 29.3291V29.8262Z" fill="white"/>
</g>
<defs>
<clipPath id="clip0_108_828">
<rect width="30" height="30" fill="white"/>
</clipPath>
</defs>
</svg>
